<?xml version="1.0" encoding="utf-8"?>
<!-- Generator: Adobe Illustrator 23.0.3, SVG Export Plug-In . SVG Version: 6.00 Build 0)  -->
<svg version="1.1" id="Layer_1" xmlns:serif="http://www.serif.com/"
	 xmlns="http://www.w3.org/2000/svg" xmlns:xlink="http://www.w3.org/1999/xlink" x="0px" y="0px" viewBox="0 0 288.3 172.8"
	 style="enable-background:new 0 0 288.3 172.8;" xml:space="preserve">
<style type="text/css">
	.st0{fill:#252B47;}
	.st1{opacity:0.3629;}
	.st2{fill:#FFFFFF;fill-opacity:0.1059;}
	.st3{fill:#FFFFFF;fill-opacity:0.1686;}
	.st4{fill:#FFFFFF;fill-opacity:0.4118;}
	.st5{fill:#FFFFFF;fill-opacity:0.1412;}
	.st6{fill:#FFFFFF;fill-opacity:0.349;}
	.st7{fill:#FFFFFF;fill-opacity:0.149;}
	.st8{fill:#FFFFFF;fill-opacity:0.1608;}
	.st9{fill:#FFFFFF;fill-opacity:0.2;}
	.st10{fill:#EBEBEB;fill-opacity:9.803920e-02;}
</style>
<g id="Rectangle-1" transform="matrix(-0.933904,-1.1437e-16,1.20053e-16,-0.98031,490.947,297.046)" serif:id="Rectangle 1">
	<rect x="217" y="126.8" class="st0" width="308.7" height="176.3"/>
</g>
<g>
	<g class="st1">
		<g transform="matrix(0.500938,0,0,0.500938,-0.59437,-0.183314)">
			<path class="st2" d="M31.6,0.1h8.9L111,31.8L71.5,0.1h2.8l40.4,32.3l-4.9-32.3h1.7l5.1,33.4l57.9-33.4h3.5l-60.4,34.8l0.1,0.1
				l49.4,8.6l12.2-43.5h1.8l-12.3,43.8l49.5,8.6l-0.1-0.2l0.4-0.2L181.6,0.1h2.1L219.1,50l-1.9-49.9h1.7l1.9,48.8l16-48.8h1.8
				l-16.4,50l52.4-26.5l2.8-23.5h1.7l-2.7,22.5l13-6.6V18l-13.2,6.7l-5.4,45l18.6-25.6v2.9l-17.3,23.7l-1.4-1l-0.1,0.5l1.1,0.4
				l-0.3,0.8l0,0l0.9-0.1l0.5,4.6l16.2,38.9l-1.6,0.7l-14-33.7l3.5,34.5l11.3-0.9l0,0.3l0.9,0.2l-7.7,45.6l0.1,0.9l7.9,1.8v1.8
				l-8.9-2l-0.2,0.4l-0.1-0.1l0,0l0.1,0.8l-0.1,0l-0.9,7.8h-1.7l0.9-7.7l-38.1,2.6l-1.7,5h-1.8l1.6-4.9l-19.6,1.4l0.1,3.6h-1.7
				l-0.1-3.4l-34.1,2.4l0.8,1.1h-2.1l-0.7-0.9l-0.9,0.1l0-0.4l-2.2,1.2h-3.5l3.6-2.1l-69.6-17.5l3,19.6h-1.7l-3-19.5l-41.9,11.9
				l9.5,7.6h-2.8l-8.8-7l-24.8,7h-5.1l-31.4-7.1v-1.8l32.3,7.3L1.4,117.1v-6.2L32.5,4.4L1.4,47.1v-2.9L31.5,2.8L1.4,18v-1.9
				L32.5,0.4L31.6,0.1z M35.9,171.7l25.2-7.1L5,119.7L35.9,171.7z M182.9,169.1l-0.3,1.1l34.5-2.4l-1.6-43.1L182.9,169.1z
				 M168.4,122.7l12.5,46.2l0.4-0.5l17.7-55l-4.9-3.2L168.4,122.7z M137.3,137.8l41.8,30.9l-12.3-45.2L137.3,137.8z M108.9,151.6
				l0.1,0.2l67.2,16.9l-40.6-30L108.9,151.6z M218.7,167.7l20.2-1.4l7.5-22.9L217.1,125L218.7,167.7z M240.8,166.1l37.7-2.6l0-0.2
				L248,144.3L240.8,166.1z M63.1,164l42-11.9L4.7,117.2L63.1,164z M184.6,163.9l29.8-40.7l-13.8-8.9L184.6,163.9z M256,119.9
				l-7.4,22.6l31,19.4l0.1-0.4l-4.3-43.2L256,119.9z M277.1,118.3l3.7,36.8l6.3-37.6L277.1,118.3z M7.5,116.4l99,34.4l0.1,0
				l-23.6-50L7.5,116.4z M108.1,149.8l14.8-20.5l-37.5-27.7L108.1,149.8z M111,148.6l22.9-11.1l-9.7-7.2L111,148.6z M218,123
				l-0.3,0.3l29.4,18.4l7.1-21.6L218,123z M125.3,128.9l10.5,7.7l30.6-14.9L156.7,86l-0.4-0.2L125.3,128.9z M86.3,100.1l37.5,27.7
				l30-41.6L86.3,100.1z M217.2,121.3l49.6-46.5l-63.5,30.9l-2.2,6.9l15.1,9.7l0.1-0.1l-0.1-0.8L217.2,121.3z M220,121.1l34.7-2.8
				l14.1-43L220,121.1z M168,121l24.5-11.9l-33.6-21.7L168,121z M256.6,118.2l18.6-1.5l-4-40.2l-0.5-1.3L256.6,118.2z M3.1,114.8
				l1.2,0.4l77.9-16L52.9,77.5L3.1,114.8z M2.6,113.1l49.8-37.4l-17-75.2L2.6,113.1z M195.9,109.3l3.6,2.3l1.6-4.9L195.9,109.3z
				 M158.2,85l36,23.2l7.6-3.7l8.1-25.2L158.2,85z M211.9,79l-7.9,24.4L266.7,73L211.9,79z M83.8,98.2l0.7,0.5l67.8-14l-77.7-6.1
				L83.8,98.2z M80.8,96l-8.3-17.5l-17.3-1.4L80.8,96z M166.5,45.3l-47.3-8.2l37.7,46.4l-0.3-0.6l0.6-0.3l-1.1-0.3L166.5,45.3z
				 M69.1,67.2l4.6,9.7l80.7,6.3L116.9,37L69.1,67.2z M160.4,83l50.2-5.6l6.9-21.5L160.4,83z M157.9,82.2l59.6-28.2l-49.3-8.5
				L157.9,82.2z M221.1,55.3l-0.5,0l-0.1,0.3l-0.8-0.3l-0.2,0l-7,21.9l55.2-6.1L221,54.9L221.1,55.3z M55.9,75.5l15.8,1.2l-4.1-8.6
				L55.9,75.5z M52.9,75.7l0.4,0.5L52.9,75.7L52.9,75.7z M53.9,74.7l13-8.2L38.5,6.3L53.9,74.7z M221.5,52.5l-0.2,0.7L269,69.8
				l5.3-44.1L221.5,52.5z M115.1,35.5L37.8,0.8l30.6,64.8l47.3-29.8l-0.1,0l-0.5,0.1L115.1,35.5z"/>
		</g>
		<g transform="matrix(0.500938,0,0,0.500938,249.968,-0.183314)">
			<path class="st2" d="M-180.5,0.1h8.9l70.6,31.7l-39.6-31.7h2.8l40.4,32.3l-4.9-32.3h1.7l5.1,33.4l57.9-33.4h3.5l-60.4,34.8
				l0.1,0.1l49.4,8.6l12.2-43.5h1.8l-12.3,43.8l49.5,8.6L6,52.2L6.4,52L-30.5,0.1h2.1L7,50L5.1,0.1h1.7l1.9,48.8l16-48.8h1.8
				l-16.4,50l52.4-26.5l2.8-23.5h1.7l-2.7,22.5l13-6.6V18l-13.2,6.7l-5.4,45l18.6-25.6v2.9L60.1,70.8l-1.4-1l-0.1,0.5l1.1,0.4
				l-0.3,0.8l0,0l0.9-0.1l0.5,4.6L77,115l-1.6,0.7L61.4,82l3.5,34.5l11.3-0.9l0,0.3l0.9,0.2l-7.7,45.6l0.1,0.9l7.9,1.8v1.8l-8.9-2
				l-0.2,0.4l-0.1-0.1l0,0l0.1,0.8l-0.1,0l-0.9,7.8h-1.7l0.9-7.7l-38.1,2.6l-1.7,5h-1.8l1.6-4.9l-19.6,1.4l0.1,3.6H5.1L5,169.5
				l-34.1,2.4l0.8,1.1h-2.1l-0.7-0.9l-0.9,0.1l0-0.4l-2.2,1.2h-3.5l3.6-2.1l-69.6-17.5l3,19.6h-1.7l-3-19.5l-41.9,11.9l9.5,7.6h-2.8
				l-8.8-7l-24.8,7h-5.1l-31.4-7.1v-1.8l32.3,7.3l-32.3-54.3v-6.2l31.1-106.4l-31.1,42.7v-2.9l30.1-41.4L-210.7,18v-1.9l31.1-15.8
				L-180.5,0.1z M-176.2,171.7l25.2-7.1l-56.1-44.9L-176.2,171.7z M-29.2,169.1l-0.3,1.1l34.5-2.4l-1.6-43.1L-29.2,169.1z
				 M-43.7,122.7l12.5,46.2l0.4-0.5l17.7-55l-4.9-3.2L-43.7,122.7z M-74.8,137.8l41.8,30.9l-12.3-45.2L-74.8,137.8z M-103.2,151.6
				l0.1,0.2l67.2,16.9l-40.6-30L-103.2,151.6z M6.7,167.7l20.2-1.4l7.5-22.9L5,125L6.7,167.7z M28.8,166.1l37.7-2.6l0-0.2
				l-30.6-19.1L28.8,166.1z M-149,164l42-11.9l-100.4-34.9L-149,164z M-27.5,163.9l29.8-40.7l-13.8-8.9L-27.5,163.9z M43.9,119.9
				l-7.4,22.6l31,19.4l0.1-0.4l-4.3-43.2L43.9,119.9z M65,118.3l3.7,36.8l6.3-37.6L65,118.3z M-204.6,116.4l99,34.4l0.1,0l-23.6-50
				L-204.6,116.4z M-104,149.8l14.8-20.5l-37.5-27.7L-104,149.8z M-101,148.6l22.9-11.1l-9.7-7.2L-101,148.6z M5.9,123l-0.3,0.3
				L35,141.6l7.1-21.6L5.9,123z M-86.8,128.9l10.5,7.7l30.6-14.9L-55.4,86l-0.4-0.2L-86.8,128.9z M-125.7,100.1l37.5,27.7l30-41.6
				L-125.7,100.1z M5.2,121.3l49.6-46.5l-63.5,30.9l-2.2,6.9l15.1,9.7l0.1-0.1l-0.1-0.8L5.2,121.3z M7.9,121.1l34.7-2.8l14.1-43
				L7.9,121.1z M-44.1,121l24.5-11.9l-33.6-21.7L-44.1,121z M44.5,118.2l18.6-1.5l-4-40.2l-0.5-1.3L44.5,118.2z M-208.9,114.8
				l1.2,0.4l77.9-16l-29.3-21.7L-208.9,114.8z M-209.5,113.1l49.8-37.4l-17-75.2L-209.5,113.1z M-16.1,109.3l3.6,2.3l1.6-4.9
				L-16.1,109.3z M-53.8,85l36,23.2l7.6-3.7l8.1-25.2L-53.8,85z M-0.2,79L-8,103.4L54.6,73L-0.2,79z M-128.3,98.2l0.7,0.5l67.8-14
				l-77.7-6.1L-128.3,98.2z M-131.2,96l-8.3-17.5l-17.3-1.4L-131.2,96z M-45.6,45.3l-47.3-8.2l37.7,46.4l-0.3-0.6l0.6-0.3l-1.1-0.3
				L-45.6,45.3z M-143,67.2l4.6,9.7l80.7,6.3L-95.2,37L-143,67.2z M-51.7,83l50.2-5.6L5.4,56L-51.7,83z M-54.2,82.2L5.4,54.1
				l-49.3-8.5L-54.2,82.2z M9,55.3l-0.5,0l-0.1,0.3l-0.8-0.3l-0.2,0l-7,21.9l55.2-6.1L9,54.9L9,55.3z M-156.2,75.5l15.8,1.2
				l-4.1-8.6L-156.2,75.5z M-159.2,75.7l0.4,0.5L-159.2,75.7L-159.2,75.7z M-158.1,74.7l13-8.2l-28.4-60.2L-158.1,74.7z M9.4,52.5
				l-0.2,0.7L57,69.8l5.3-44.1L9.4,52.5z M-97,35.5l-77.2-34.7l30.6,64.8l47.3-29.8l-0.1,0l-0.5,0.1L-97,35.5z"/>
		</g>
		<g transform="matrix(0.500938,0,0,0.500938,249.968,150.132)">
			<path class="st2" d="M-180.5-127.1h8.9l70.6,31.7l-39.6-31.7h2.8l40.4,32.3l-4.9-32.3h1.7l5.1,33.4l57.9-33.4h3.5l-60.4,34.8
				l0.1,0.1l49.4,8.6l12.2-43.5h1.8l-12.3,43.8l49.5,8.6L6-75l0.4-0.2l-36.9-51.9h2.1L7-77.2l-1.9-49.9h1.7l1.9,48.8l16-48.8h1.8
				l-16.4,50l52.4-26.5l2.8-23.5h1.7l-2.7,22.5l13-6.6v1.9l-13.2,6.7l-5.4,45l18.6-25.6v2.9L60.1-56.4l-1.4-1l-0.1,0.5l1.1,0.4
				l-0.3,0.8l0,0l0.9-0.1l0.5,4.6L77-12.2l-1.6,0.7l-14-33.7l3.5,34.5l11.3-0.9l0,0.3l0.9,0.2l-7.7,45.6l0.1,0.9l7.9,1.8v1.8l-8.9-2
				l-0.2,0.4l-0.1-0.1l0,0l0.1,0.8l-0.1,0l-0.9,7.8h-1.7l0.9-7.7l-38.1,2.6l-1.7,5h-1.8l1.6-4.9L6.7,42.2l0.1,3.6H5.1L5,42.3
				l-34.1,2.4l0.8,1.1h-2.1l-0.7-0.9l-0.9,0.1l0-0.4l-2.2,1.2h-3.5l3.6-2.1l-69.6-17.5l3,19.6h-1.7l-3-19.5l-41.9,11.9l9.5,7.6h-2.8
				l-8.8-7l-24.8,7h-5.1l-31.4-7.1v-1.8l32.3,7.3l-32.3-54.3v-6.2l31.1-106.4l-31.1,42.7v-2.9l30.1-41.4l-30.1,15.3v-1.9l31.1-15.8
				L-180.5-127.1z M-176.2,44.5l25.2-7.1l-56.1-44.9L-176.2,44.5z M-29.2,41.9l-0.3,1.1l34.5-2.4L3.3-2.5L-29.2,41.9z M-43.7-4.6
				l12.5,46.2l0.4-0.5l17.7-55l-4.9-3.2L-43.7-4.6z M-74.8,10.5L-33,41.4L-45.2-3.8L-74.8,10.5z M-103.2,24.3l0.1,0.2l67.2,16.9
				l-40.6-30L-103.2,24.3z M6.7,40.4L26.9,39l7.5-22.9L5-2.3L6.7,40.4z M28.8,38.9l37.7-2.6l0-0.2L35.9,17L28.8,38.9z M-149,36.8
				l42-11.9L-207.4-10L-149,36.8z M-27.5,36.6L2.3-4l-13.8-8.9L-27.5,36.6z M43.9-7.3l-7.4,22.6l31,19.4l0.1-0.4L63.3-8.8L43.9-7.3z
				 M65-9l3.7,36.8L75-9.8L65-9z M-204.6-10.9l99,34.4l0.1,0l-23.6-50L-204.6-10.9z M-104,22.5L-89.2,2l-37.5-27.7L-104,22.5z
				 M-101,21.4l22.9-11.1L-87.8,3L-101,21.4z M5.9-4.2L5.6-4L35,14.4l7.1-21.6L5.9-4.2z M-86.8,1.6l10.5,7.7l30.6-14.9l-9.7-35.7
				l-0.4-0.2L-86.8,1.6z M-125.7-27.1l37.5,27.7l30-41.6L-125.7-27.1z M5.2-5.9l49.6-46.5L-8.8-21.5l-2.2,6.9L4.1-4.9L4.2-5L4.1-5.8
				L5.2-5.9z M7.9-6.1l34.7-2.8l14.1-43L7.9-6.1z M-44.1-6.3l24.5-11.9l-33.6-21.7L-44.1-6.3z M44.5-9.1l18.6-1.5l-4-40.2L58.6-52
				L44.5-9.1z M-208.9-12.4l1.2,0.4l77.9-16l-29.3-21.7L-208.9-12.4z M-209.5-14.1l49.8-37.4l-17-75.2L-209.5-14.1z M-16.1-18
				l3.6,2.3l1.6-4.9L-16.1-18z M-53.8-42.3l36,23.2l7.6-3.7L-2.1-48L-53.8-42.3z M-0.2-48.2L-8-23.8l62.6-30.4L-0.2-48.2z
				 M-128.3-29l0.7,0.5l67.8-14l-77.7-6.1L-128.3-29z M-131.2-31.2l-8.3-17.5l-17.3-1.4L-131.2-31.2z M-45.6-82l-47.3-8.2l37.7,46.4
				l-0.3-0.6l0.6-0.3L-56-45L-45.6-82z M-143-60l4.6,9.7l80.7,6.3l-37.5-46.2L-143-60z M-51.7-44.2l50.2-5.6l6.9-21.5L-51.7-44.2z
				 M-54.2-45L5.4-73.1l-49.3-8.5L-54.2-45z M9-72l-0.5,0l-0.1,0.3l-0.8-0.3l-0.2,0L0.4-50l55.2-6.1L9-72.3L9-72z M-156.2-51.7
				l15.8,1.2l-4.1-8.6L-156.2-51.7z M-159.2-51.5l0.4,0.5L-159.2-51.5L-159.2-51.5z M-158.1-52.5l13-8.2l-28.4-60.2L-158.1-52.5z
				 M9.4-74.8l-0.2,0.7L57-57.5l5.3-44.1L9.4-74.8z M-97-91.7l-77.2-34.7l30.6,64.8l47.3-29.8l-0.1,0l-0.5,0.1L-97-91.7z"/>
		</g>
		<g transform="matrix(0.500938,0,0,0.500938,-0.542185,150.132)">
			<path class="st2" d="M31.5-127.1h8.9L111-95.4l-39.6-31.7h2.8l40.4,32.3l-4.9-32.3h1.7l5.1,33.4l57.9-33.4h3.5l-60.4,34.8
				l0.1,0.1l49.4,8.6l12.2-43.5h1.8l-12.3,43.8l49.5,8.6L218-75l0.4-0.2l-36.9-51.9h2.1l35.4,49.9l-1.9-49.9h1.7l1.9,48.8l16-48.8
				h1.8l-16.4,50l52.4-26.5l2.8-23.5h1.7l-2.7,22.5l13-6.6v1.9l-13.2,6.7l-5.4,45l18.6-25.6v2.9l-17.3,23.7l-1.4-1l-0.1,0.5l1.1,0.4
				l-0.3,0.8l0,0l0.9-0.1l0.5,4.6L289-12.2l-1.6,0.7l-14-33.7l3.5,34.5l11.3-0.9l0,0.3l0.9,0.2l-7.7,45.6l0.1,0.9l7.9,1.8v1.8
				l-8.9-2l-0.2,0.4l-0.1-0.1l0,0l0.1,0.8l-0.1,0l-0.9,7.8h-1.7l0.9-7.7l-38.1,2.6l-1.7,5h-1.8l1.6-4.9l-19.6,1.4l0.1,3.6h-1.7
				l-0.1-3.4l-34.1,2.4l0.8,1.1h-2.1l-0.7-0.9l-0.9,0.1l0-0.4l-2.2,1.2h-3.5l3.6-2.1l-69.6-17.5l3,19.6h-1.7l-3-19.5L64.7,38.1
				l9.5,7.6h-2.8l-8.8-7l-24.8,7h-5.1L1.4,38.6v-1.8l32.3,7.3L1.4-10.2v-6.2l31.1-106.4L1.4-80.1v-2.9l30.1-41.4L1.4-109.2v-1.9
				l31.1-15.8L31.5-127.1z M35.9,44.5L61,37.4L4.9-7.6L35.9,44.5z M182.8,41.9l-0.3,1.1l34.5-2.4l-1.6-43.1L182.8,41.9z M168.4-4.6
				l12.5,46.2l0.4-0.5l17.7-55l-4.9-3.2L168.4-4.6z M137.3,10.5l41.8,30.9L166.8-3.8L137.3,10.5z M108.9,24.3l0.1,0.2l67.2,16.9
				l-40.6-30L108.9,24.3z M218.7,40.4l20.2-1.4l7.5-22.9L217.1-2.3L218.7,40.4z M240.8,38.9l37.7-2.6l0-0.2L248,17L240.8,38.9z
				 M63.1,36.8l42-11.9L4.6-10L63.1,36.8z M184.5,36.6L214.3-4l-13.8-8.9L184.5,36.6z M256-7.3l-7.4,22.6l31,19.4l0.1-0.4l-4.3-43.2
				L256-7.3z M277-9l3.7,36.8l6.3-37.6L277-9z M7.5-10.9l99,34.4l0.1,0L83-26.4L7.5-10.9z M108,22.5L122.8,2L85.3-25.7L108,22.5z
				 M111,21.4l22.9-11.1L124.2,3L111,21.4z M217.9-4.2L217.6-4L247,14.4l7.1-21.6L217.9-4.2z M125.2,1.6l10.5,7.7l30.6-14.9
				l-9.7-35.7l-0.4-0.2L125.2,1.6z M86.3-27.1l37.5,27.7l30-41.6L86.3-27.1z M217.2-5.9l49.6-46.5l-63.5,30.9l-2.2,6.9l15.1,9.7
				l0.1-0.1l-0.1-0.8L217.2-5.9z M219.9-6.1l34.7-2.8l14.1-43L219.9-6.1z M167.9-6.3l24.5-11.9l-33.6-21.7L167.9-6.3z M256.5-9.1
				l18.6-1.5l-4-40.2l-0.5-1.3L256.5-9.1z M3.1-12.4L4.3-12l77.9-16L52.8-49.7L3.1-12.4z M2.5-14.1l49.8-37.4l-17-75.2L2.5-14.1z
				 M195.9-18l3.6,2.3l1.6-4.9L195.9-18z M158.2-42.3l36,23.2l7.6-3.7L210-48L158.2-42.3z M211.8-48.2L204-23.8l62.6-30.4
				L211.8-48.2z M83.7-29l0.7,0.5l67.8-14l-77.7-6.1L83.7-29z M80.8-31.2l-8.3-17.5L55.3-50L80.8-31.2z M166.4-82l-47.3-8.2
				l37.7,46.4l-0.3-0.6l0.6-0.3l-1.1-0.3L166.4-82z M69.1-60l4.6,9.7l80.7,6.3l-37.5-46.2L69.1-60z M160.3-44.2l50.2-5.6l6.9-21.5
				L160.3-44.2z M157.9-45l59.6-28.2l-49.3-8.5L157.9-45z M221-72l-0.5,0l-0.1,0.3l-0.8-0.3l-0.2,0l-7,21.9l55.2-6.1L221-72.3
				L221-72z M55.9-51.7l15.8,1.2l-4.1-8.6L55.9-51.7z M52.8-51.5l0.4,0.5L52.8-51.5L52.8-51.5z M53.9-52.5l13-8.2l-28.4-60.2
				L53.9-52.5z M221.4-74.8l-0.2,0.7L269-57.5l5.3-44.1L221.4-74.8z M115-91.7l-77.2-34.7l30.6,64.8l47.3-29.8l-0.1,0l-0.5,0.1
				L115-91.7z"/>
		</g>
		<g transform="matrix(0.500938,0,0,0.500938,-269.515,-452.67)">
			<g id="Ellipse-1" transform="matrix(1,0,0,1,538.598,904.155)" serif:id="Ellipse 1">
				<circle class="st3" cx="107.2" cy="151.8" r="2.3"/>
			</g>
			<g id="Ellipse-1-copy" transform="matrix(1,0,0,1,538.598,904.155)" serif:id="Ellipse 1 copy">
				<circle class="st4" cx="52.5" cy="75.8" r="2.3"/>
			</g>
			<g id="Ellipse-1-copy-6" transform="matrix(1,0,0,1,538.598,904.155)" serif:id="Ellipse 1 copy 6">
				<circle class="st4" cx="179.8" cy="169.7" r="2.3"/>
			</g>
			<g id="Ellipse-1-copy-2" transform="matrix(1,0,0,1,538.598,904.155)" serif:id="Ellipse 1 copy 2">
				<circle class="st5" cx="215.5" cy="122.5" r="2.3"/>
			</g>
			<g id="Ellipse-1-copy-3" transform="matrix(1,0,0,1,538.598,904.155)" serif:id="Ellipse 1 copy 3">
				<circle class="st6" cx="219.5" cy="53.3" r="2.3"/>
			</g>
			<g id="Ellipse-1-copy-7" transform="matrix(1,0,0,1,538.598,904.155)" serif:id="Ellipse 1 copy 7">
				<circle class="st4" cx="270.2" cy="71.2" r="2.3"/>
			</g>
			<g id="Ellipse-1-copy-8" transform="matrix(1,0,0,1,538.598,904.155)" serif:id="Ellipse 1 copy 8">
				<circle class="st4" cx="278.9" cy="163.4" r="2.3"/>
			</g>
			<g id="Ellipse-1-copy-9" transform="matrix(1,0,0,1,538.598,904.155)" serif:id="Ellipse 1 copy 9">
				<circle class="st4" cx="156.2" cy="83.9" r="2.3"/>
			</g>
			<g id="Ellipse-1-copy-10" transform="matrix(1,0,0,1,538.598,904.155)" serif:id="Ellipse 1 copy 10">
				<circle class="st7" cx="-1.1" cy="115.5" r="2.3"/>
			</g>
			<g id="Ellipse-1-copy-14" transform="matrix(1,0,0,1,538.598,904.155)" serif:id="Ellipse 1 copy 14">
				<circle class="st7" cx="288.1" cy="115.5" r="2.3"/>
			</g>
			<g id="Ellipse-1-copy-4" transform="matrix(1,0,0,1,538.598,904.155)" serif:id="Ellipse 1 copy 4">
				<circle class="st8" cx="116.4" cy="35.5" r="2.3"/>
			</g>
			<g id="Ellipse-1-copy-11" transform="matrix(1,0,0,1,538.598,904.155)" serif:id="Ellipse 1 copy 11">
				<circle class="st9" cx="34.6" cy="-0.2" r="2.3"/>
			</g>
			<g id="Ellipse-1-copy-13" transform="matrix(1,0,0,1,538.598,904.155)" serif:id="Ellipse 1 copy 13">
				<circle class="st4" cx="34.6" cy="172.6" r="2.3"/>
			</g>
			<g id="Ellipse-1-copy-12" transform="matrix(1,0,0,1,538.598,904.155)" serif:id="Ellipse 1 copy 12">
				<circle class="st9" cx="34.6" cy="174.3" r="2.3"/>
			</g>
		</g>
		<g transform="matrix(0.500938,0,0,0.500938,-18.0316,-452.67)">
			<g id="Ellipse-11" transform="matrix(1,0,0,1,538.598,904.155)" serif:id="Ellipse 1">
				<circle class="st3" cx="-105.6" cy="151.8" r="2.3"/>
			</g>
			<g id="Ellipse-1-copy1" transform="matrix(1,0,0,1,538.598,904.155)" serif:id="Ellipse 1 copy">
				<circle class="st4" cx="-160.4" cy="75.8" r="2.3"/>
			</g>
			<g id="Ellipse-1-copy-61" transform="matrix(1,0,0,1,538.598,904.155)" serif:id="Ellipse 1 copy 6">
				<circle class="st4" cx="-33.1" cy="169.7" r="2.3"/>
			</g>
			<g id="Ellipse-1-copy-21" transform="matrix(1,0,0,1,538.598,904.155)" serif:id="Ellipse 1 copy 2">
				<circle class="st5" cx="2.7" cy="122.5" r="2.3"/>
			</g>
			<g id="Ellipse-1-copy-31" transform="matrix(1,0,0,1,538.598,904.155)" serif:id="Ellipse 1 copy 3">
				<circle class="st6" cx="6.7" cy="53.3" r="2.3"/>
			</g>
			<g id="Ellipse-1-copy-71" transform="matrix(1,0,0,1,538.598,904.155)" serif:id="Ellipse 1 copy 7">
				<circle class="st4" cx="57.4" cy="71.2" r="2.3"/>
			</g>
			<g id="Ellipse-1-copy-81" transform="matrix(1,0,0,1,538.598,904.155)" serif:id="Ellipse 1 copy 8">
				<circle class="st4" cx="66" cy="163.4" r="2.3"/>
			</g>
			<g id="Ellipse-1-copy-91" transform="matrix(1,0,0,1,538.598,904.155)" serif:id="Ellipse 1 copy 9">
				<circle class="st4" cx="-56.7" cy="83.9" r="2.3"/>
			</g>
			<g id="Ellipse-1-copy-101" transform="matrix(1,0,0,1,538.598,904.155)" serif:id="Ellipse 1 copy 10">
				<circle class="st7" cx="-213.9" cy="115.5" r="2.3"/>
			</g>
			<g id="Ellipse-1-copy-141" transform="matrix(1,0,0,1,538.598,904.155)" serif:id="Ellipse 1 copy 14">
				<circle class="st7" cx="75.2" cy="115.5" r="2.3"/>
			</g>
			<g id="Ellipse-1-copy-41" transform="matrix(1,0,0,1,538.598,904.155)" serif:id="Ellipse 1 copy 4">
				<circle class="st8" cx="-96.4" cy="35.5" r="2.3"/>
			</g>
			<g id="Ellipse-1-copy-111" transform="matrix(1,0,0,1,538.598,904.155)" serif:id="Ellipse 1 copy 11">
				<circle class="st9" cx="-178.2" cy="-0.2" r="2.3"/>
			</g>
			<g id="Ellipse-1-copy-131" transform="matrix(1,0,0,1,538.598,904.155)" serif:id="Ellipse 1 copy 13">
				<circle class="st4" cx="-178.2" cy="172.6" r="2.3"/>
			</g>
			<g id="Ellipse-1-copy-121" transform="matrix(1,0,0,1,538.598,904.155)" serif:id="Ellipse 1 copy 12">
				<circle class="st9" cx="-178.2" cy="174.3" r="2.3"/>
			</g>
		</g>
		<g transform="matrix(0.500938,0,0,0.500938,-269.515,-302.328)">
			<g id="Ellipse-12" transform="matrix(1,0,0,1,538.598,904.155)" serif:id="Ellipse 1">
				<circle class="st3" cx="107.2" cy="24.6" r="2.3"/>
			</g>
			<g id="Ellipse-1-copy2" transform="matrix(1,0,0,1,538.598,904.155)" serif:id="Ellipse 1 copy">
				<circle class="st4" cx="52.5" cy="-51.4" r="2.3"/>
			</g>
			<g id="Ellipse-1-copy-62" transform="matrix(1,0,0,1,538.598,904.155)" serif:id="Ellipse 1 copy 6">
				<circle class="st4" cx="179.8" cy="42.4" r="2.3"/>
			</g>
			<g id="Ellipse-1-copy-22" transform="matrix(1,0,0,1,538.598,904.155)" serif:id="Ellipse 1 copy 2">
				<circle class="st5" cx="215.5" cy="-4.8" r="2.3"/>
			</g>
			<g id="Ellipse-1-copy-32" transform="matrix(1,0,0,1,538.598,904.155)" serif:id="Ellipse 1 copy 3">
				<circle class="st6" cx="219.5" cy="-73.9" r="2.3"/>
			</g>
			<g id="Ellipse-1-copy-72" transform="matrix(1,0,0,1,538.598,904.155)" serif:id="Ellipse 1 copy 7">
				<circle class="st4" cx="270.2" cy="-56.1" r="2.3"/>
			</g>
			<g id="Ellipse-1-copy-82" transform="matrix(1,0,0,1,538.598,904.155)" serif:id="Ellipse 1 copy 8">
				<circle class="st4" cx="278.9" cy="36.1" r="2.3"/>
			</g>
			<g id="Ellipse-1-copy-92" transform="matrix(1,0,0,1,538.598,904.155)" serif:id="Ellipse 1 copy 9">
				<circle class="st4" cx="156.2" cy="-43.4" r="2.3"/>
			</g>
			<g id="Ellipse-1-copy-102" transform="matrix(1,0,0,1,538.598,904.155)" serif:id="Ellipse 1 copy 10">
				<circle class="st7" cx="-1.1" cy="-11.7" r="2.3"/>
			</g>
			<g id="Ellipse-1-copy-142" transform="matrix(1,0,0,1,538.598,904.155)" serif:id="Ellipse 1 copy 14">
				<circle class="st7" cx="288.1" cy="-11.7" r="2.3"/>
			</g>
			<g id="Ellipse-1-copy-42" transform="matrix(1,0,0,1,538.598,904.155)" serif:id="Ellipse 1 copy 4">
				<circle class="st8" cx="116.4" cy="-91.8" r="2.3"/>
			</g>
			<g id="Ellipse-1-copy-112" transform="matrix(1,0,0,1,538.598,904.155)" serif:id="Ellipse 1 copy 11">
				<circle class="st9" cx="34.6" cy="-127.5" r="2.3"/>
			</g>
			<g id="Ellipse-1-copy-132" transform="matrix(1,0,0,1,538.598,904.155)" serif:id="Ellipse 1 copy 13">
				<circle class="st4" cx="34.6" cy="45.3" r="2.3"/>
			</g>
			<g id="Ellipse-1-copy-122" transform="matrix(1,0,0,1,538.598,904.155)" serif:id="Ellipse 1 copy 12">
				<circle class="st9" cx="34.6" cy="47" r="2.3"/>
			</g>
		</g>
		<g transform="matrix(0.500938,0,0,0.500938,-18.0316,-302.328)">
			<g id="Ellipse-13" transform="matrix(1,0,0,1,538.598,904.155)" serif:id="Ellipse 1">
				<circle class="st3" cx="-105.6" cy="24.6" r="2.3"/>
			</g>
			<g id="Ellipse-1-copy3" transform="matrix(1,0,0,1,538.598,904.155)" serif:id="Ellipse 1 copy">
				<circle class="st4" cx="-160.4" cy="-51.4" r="2.3"/>
			</g>
			<g id="Ellipse-1-copy-63" transform="matrix(1,0,0,1,538.598,904.155)" serif:id="Ellipse 1 copy 6">
				<circle class="st4" cx="-33.1" cy="42.4" r="2.3"/>
			</g>
			<g id="Ellipse-1-copy-23" transform="matrix(1,0,0,1,538.598,904.155)" serif:id="Ellipse 1 copy 2">
				<circle class="st5" cx="2.7" cy="-4.8" r="2.3"/>
			</g>
			<g id="Ellipse-1-copy-33" transform="matrix(1,0,0,1,538.598,904.155)" serif:id="Ellipse 1 copy 3">
				<circle class="st6" cx="6.7" cy="-73.9" r="2.3"/>
			</g>
			<g id="Ellipse-1-copy-73" transform="matrix(1,0,0,1,538.598,904.155)" serif:id="Ellipse 1 copy 7">
				<circle class="st4" cx="57.4" cy="-56.1" r="2.3"/>
			</g>
			<g id="Ellipse-1-copy-83" transform="matrix(1,0,0,1,538.598,904.155)" serif:id="Ellipse 1 copy 8">
				<circle class="st4" cx="66" cy="36.1" r="2.3"/>
			</g>
			<g id="Ellipse-1-copy-93" transform="matrix(1,0,0,1,538.598,904.155)" serif:id="Ellipse 1 copy 9">
				<circle class="st4" cx="-56.7" cy="-43.4" r="2.3"/>
			</g>
			<g id="Ellipse-1-copy-103" transform="matrix(1,0,0,1,538.598,904.155)" serif:id="Ellipse 1 copy 10">
				<circle class="st7" cx="-213.9" cy="-11.7" r="2.3"/>
			</g>
			<g id="Ellipse-1-copy-143" transform="matrix(1,0,0,1,538.598,904.155)" serif:id="Ellipse 1 copy 14">
				<circle class="st7" cx="75.2" cy="-11.7" r="2.3"/>
			</g>
			<g id="Ellipse-1-copy-43" transform="matrix(1,0,0,1,538.598,904.155)" serif:id="Ellipse 1 copy 4">
				<circle class="st8" cx="-96.4" cy="-91.8" r="2.3"/>
			</g>
			<g id="Ellipse-1-copy-113" transform="matrix(1,0,0,1,538.598,904.155)" serif:id="Ellipse 1 copy 11">
				<circle class="st9" cx="-178.2" cy="-127.5" r="2.3"/>
			</g>
			<g id="Ellipse-1-copy-133" transform="matrix(1,0,0,1,538.598,904.155)" serif:id="Ellipse 1 copy 13">
				<circle class="st4" cx="-178.2" cy="45.3" r="2.3"/>
			</g>
			<g id="Ellipse-1-copy-123" transform="matrix(1,0,0,1,538.598,904.155)" serif:id="Ellipse 1 copy 12">
				<circle class="st9" cx="-178.2" cy="47" r="2.3"/>
			</g>
		</g>
		<g transform="matrix(0.500938,0,0,0.500938,502.721,0.254881)">
			<g>
				<circle id="Ellipse-1-copy-104" serif:id="Ellipse 1 copy 10" class="st7" cx="-426.3" cy="115.5" r="2.3">
				</circle>
			</g>
		</g>
		<g transform="matrix(0.500938,0,0,0.500938,502.721,150.597)">
			<g>
				<circle id="Ellipse-1-copy-105" serif:id="Ellipse 1 copy 10" class="st7" cx="-426.3" cy="-11.7" r="2.3">
				</circle>
			</g>
		</g>
	</g>
</g>
<circle id="Ellipse-14" serif:id="Ellipse 1" class="st3" cx="107.3" cy="152.1" r="2.3">
</circle>
<circle id="Ellipse-1-copy4" serif:id="Ellipse 1 copy" class="st4" cx="52.6" cy="76" r="2.3">
</circle>
<circle id="Ellipse-1-copy-64" serif:id="Ellipse 1 copy 6" class="st4" cx="179.9" cy="169.9" r="2.3">
</circle>
<circle id="Ellipse-1-copy-24" serif:id="Ellipse 1 copy 2" class="st5" cx="215.6" cy="122.7" r="2.3">
</circle>
<circle id="Ellipse-1-copy-34" serif:id="Ellipse 1 copy 3" class="st6" cx="219.6" cy="53.6" r="2.3">
</circle>
<circle id="Ellipse-1-copy-74" serif:id="Ellipse 1 copy 7" class="st4" cx="270.3" cy="71.4" r="2.3">
</circle>
<circle id="Ellipse-1-copy-84" serif:id="Ellipse 1 copy 8" class="st4" cx="278.9" cy="163.6" r="2.3">
</circle>
<circle id="Ellipse-1-copy-94" serif:id="Ellipse 1 copy 9" class="st4" cx="156.3" cy="84.1" r="2.3">
</circle>
<circle id="Ellipse-1-copy-106" serif:id="Ellipse 1 copy 10" class="st7" cx="-1" cy="115.8" r="2.3">
</circle>
<circle id="Ellipse-1-copy-144" serif:id="Ellipse 1 copy 14" class="st7" cx="288.2" cy="115.8" r="2.3">
</circle>
<circle id="Ellipse-1-copy-44" serif:id="Ellipse 1 copy 4" class="st8" cx="116.5" cy="35.7" r="2.3">
</circle>
<circle id="Ellipse-1-copy-114" serif:id="Ellipse 1 copy 11" class="st9" cx="34.7" cy="0" r="2.3">
</circle>
<circle id="Ellipse-1-copy-134" serif:id="Ellipse 1 copy 13" class="st4" cx="34.7" cy="172.8" r="2.3">
</circle>
<circle id="Ellipse-1-copy-124" serif:id="Ellipse 1 copy 12" class="st9" cx="34.7" cy="174.5" r="2.3">
</circle>
<path class="st10" d="M30.9,0h8.9l70.6,31.7L70.8,0h2.8l40.4,32.3L109,0h1.7l5.1,33.4L173.7,0h3.5l-60.4,34.8l0.1,0.1l49.4,8.6
	L178.5,0h1.8L168,43.7l49.5,8.6l-0.1-0.2l0.4-0.2L180.9,0h2.1l35.4,49.9L216.6,0h1.7l1.9,48.8l16-48.8h1.8l-16.4,50l52.4-26.5
	L276.8,0h1.7l-2.7,22.5l13-6.6v1.9l-13.2,6.7l-5.4,45L288.8,44v2.9l-17.3,23.7l-1.4-1l-0.1,0.5l1.1,0.4l-0.3,0.8l0,0l0.9-0.1
	l0.5,4.6l16.2,38.9l-1.6,0.7l-14-33.7l3.5,34.5l11.3-0.9l0,0.3l0.9,0.2l-7.7,45.6l0.1,0.9l7.9,1.8v1.8l-8.9-2l-0.2,0.4l-0.1-0.1l0,0
	l0.1,0.8l-0.1,0l-0.9,7.8h-1.7l0.9-7.7l-38.1,2.6l-1.7,5h-1.8l1.6-4.9l-19.6,1.4l0.1,3.6h-1.7l-0.1-3.4l-34.1,2.4l0.8,1.1h-2.1
	l-0.7-0.9l-0.9,0.1l0-0.4l-2.2,1.2h-3.5l3.6-2.1l-69.6-17.5l3,19.6H109l-3-19.5l-41.9,11.9l9.5,7.6h-2.8l-8.8-7l-24.8,7h-5.1
	l-31.4-7.1v-1.8l32.3,7.3L0.8,116.9v-6.2L31.8,4.3L0.8,46.9V44L30.9,2.6L0.8,17.9V16L31.9,0.2L30.9,0z M35.2,171.6l25.2-7.1
	L4.3,119.5L35.2,171.6z M182.2,169l-0.3,1.1l34.5-2.4l-1.6-43.1L182.2,169z M167.7,122.5l12.5,46.2l0.4-0.5l17.7-55l-4.9-3.2
	L167.7,122.5z M136.6,137.6l41.8,30.9l-12.3-45.2L136.6,137.6z M108.3,151.4l0.1,0.2l67.2,16.9l-40.6-30L108.3,151.4z M218.1,167.5
	l20.2-1.4l7.5-22.9l-29.4-18.4L218.1,167.5z M240.2,166l37.7-2.6l0-0.2l-30.6-19.1L240.2,166z M62.5,163.9l42-11.9L4,117L62.5,163.9
	z M183.9,163.7l29.8-40.7l-13.8-8.9L183.9,163.7z M255.3,119.8l-7.4,22.6l31,19.4l0.1-0.4l-4.3-43.2L255.3,119.8z M276.4,118.1
	l3.7,36.8l6.3-37.6L276.4,118.1z M6.9,116.2l99,34.4l0.1,0l-23.6-50L6.9,116.2z M107.4,149.6l14.8-20.5l-37.5-27.7L107.4,149.6z
	 M110.4,148.5l22.9-11.1l-9.7-7.2L110.4,148.5z M217.3,122.8l-0.3,0.3l29.4,18.4l7.1-21.6L217.3,122.8z M124.6,128.7l10.5,7.7
	l30.6-14.9L156,85.9l-0.4-0.2L124.6,128.7z M85.7,100l37.5,27.7l30-41.6L85.7,100z M216.6,121.2l49.6-46.5l-63.5,30.9l-2.2,6.9
	l15.1,9.7l0.1-0.1l-0.1-0.8L216.6,121.2z M219.3,120.9l34.7-2.8l14.1-43L219.3,120.9z M167.3,120.8l24.5-11.9l-33.6-21.7
	L167.3,120.8z M255.9,118l18.6-1.5l-4-40.2l-0.5-1.3L255.9,118z M2.5,114.7l1.2,0.4l77.9-16L52.2,77.4L2.5,114.7z M1.9,113
	l49.8-37.4l-17-75.2L1.9,113z M195.3,109.1l3.6,2.3l1.6-4.9L195.3,109.1z M157.6,84.8l36,23.2l7.6-3.7l8.1-25.2L157.6,84.8z
	 M211.2,78.9l-7.9,24.4L266,72.8L211.2,78.9z M83.1,98.1l0.7,0.5l67.8-14l-77.7-6.1L83.1,98.1z M80.2,95.9l-8.3-17.5l-17.3-1.4
	L80.2,95.9z M165.8,45.1l-47.3-8.2l37.7,46.4l-0.3-0.6l0.6-0.3l-1.1-0.3L165.8,45.1z M68.5,67l4.6,9.7l80.7,6.3l-37.5-46.2L68.5,67z
	 M159.7,82.8l50.2-5.6l6.9-21.5L159.7,82.8z M157.2,82.1l59.6-28.2l-49.3-8.5L157.2,82.1z M220.4,55.1l-0.5,0l-0.1,0.3l-0.8-0.3
	l-0.2,0l-7,21.9L267,71l-46.6-16.2L220.4,55.1z M55.2,75.4l15.8,1.2L67,68L55.2,75.4z M52.2,75.5l0.4,0.5L52.2,75.5L52.2,75.5z
	 M53.3,74.6l13-8.2L37.8,6.2L53.3,74.6z M220.8,52.3l-0.2,0.7l47.8,16.7l5.3-44.1L220.8,52.3z M114.4,35.4L37.2,0.7l30.6,64.8
	L115,35.6l-0.1,0l-0.5,0.1L114.4,35.4z"/>
</svg>
